<svg xmlns="http://www.w3.org/2000/svg" width="600" height="200" viewBox="0 0 370 110.15911255485437" class="css-1j8o68f"><defs id="SvgjsDefs2052"></defs><g id="SvgjsG2053" featurekey="v37d4h-0" transform="matrix(1.2239901394983819,0,0,1.2239901394983819,-11.260709049927522,-6.364748491933994)" fill="#222"><path xmlns="http://www.w3.org/2000/svg" d="M68.3,16.7L32.1,5.2L9.2,33.1l0.8,39l31.6,23.1l18.6-4.5l11.8-2.8l16.8-4.1l2.1-42L68.3,16.7z M84.6,79.8l-12.5,2.9  l0.8-21.4l-12,2.3l-0.5,21.8l-13.6,3.2l0.5-37.1L68,25.1l18.2,19.8L84.6,79.8z"></path></g><g id="SvgjsG2054" featurekey="UxBHKT-0" transform="matrix(4.1666669315762155,0,0,4.1666669315762155,116.4166666275925,-5.249999856948843)" fill="#222"><path d="M9.72 18.9 q-0.38 0.52 -1.31 0.93 t-2.03 0.41 q-1.7 0 -2.95 -0.76 t-1.91 -2.07 t-0.66 -2.91 t0.66 -2.91 t1.91 -2.07 t2.95 -0.76 q1.14 0 2.01 0.39 t1.33 0.99 l0 -1.14 l2.96 0 l0 11 l-2.96 0 l0 -1.1 z M9.02 12.25 q-0.82 -0.87 -2.2 -0.87 q-1.4 0 -2.21 0.87 t-0.81 2.25 q0 1.34 0.83 2.22 t2.19 0.88 q1.4 0 2.21 -0.83 t0.81 -2.27 q0 -1.38 -0.82 -2.25 z M20.88 11.87 q-0.86 0.21 -1.58 0.99 t-0.72 2.28 l0 4.86 l-2.98 0 l0 -11 l2.98 0 l0 1.46 q0.74 -0.98 1.81 -1.33 t1.95 -0.33 l0 2.92 q-0.6 -0.06 -1.46 0.15 z M26.400000000000002 19.51 q-1.38 -0.77 -2.19 -2.09 t-0.81 -2.88 t0.81 -2.87 t2.18 -2.08 t2.99 -0.77 q1.74 0 3.15 0.83 t2.25 2.37 l-2.7 1.06 q-0.48 -0.82 -1.18 -1.23 t-1.52 -0.41 q-1.3 0 -2.15 0.88 t-0.85 2.22 t0.86 2.22 t2.16 0.88 q1.8 0 2.78 -1.6 l2.54 1 q-1.58 3.24 -5.32 3.24 q-1.62 0 -3 -0.77 z M46.17000000000001 10.02 q1.03 1.22 1.03 3.48 l0 6.5 l-3.04 0 l0 -6.5 q0 -1.18 -0.59 -1.7 t-1.55 -0.52 q-0.82 0 -1.48 0.65 t-0.62 2.25 l0 5.82 l-2.98 0 l0 -15.14 l2.98 0 l0 5.12 q0.54 -0.54 1.36 -0.86 t1.58 -0.32 q2.28 0 3.31 1.22 z M51.42000000000001 24.12 l1.9 -4.52 l-4.72 -10.56 l3.46 0 l2.78 7 l2.56 -7 l3.46 0 l-6.14 15.08 l-3.3 0 z"></path></g></svg>